PathFileType	4	(X/Y/Z)	C:/Users/beibeiliu/ov580/test_trc\sequence.34_training_dense_right.trc
DataRate	CameraRate	NumFrames	NumMarkers	Units	OrigDataRate	OrigDataStartFrame	OrigNumFrames
120	120	12	19	mm	120	114	142
Frame#	Time	ThumbCMC			ThumbMCP			ThumbIP			ThumbTip			IndexMCP			IndexPIP			IndexTip			MiddleMCP			MiddlePIP			MiddleTip			RingMCP			RingPIP			RingTip			PinkyMCP			PinkyPIP			PinkyTip			BackHand1			BackHand2			BackHand3	
		X0	Y0	Z0	X1	Y1	Z1	X2	Y2	Z2	X3	Y3	Z3	X4	Y4	Z4	X5	Y5	Z5	X6	Y6	Z6	X7	Y7	Z7	X8	Y8	Z8	X9	Y9	Z9	X10	Y10	Z10	X11	Y11	Z11	X12	Y12	Z12	X13	Y13	Z13	X14	Y14	Z14	X15	Y15	Z15	X16	Y16	Z16	X17	Y17	Z17	X18	Y18	Z18	
113	0.941667	100.508	35.532	26.837	104.194	38.6004	-3.0409	102.946	31.4455	-28.094	99.0511	31.7669	-47.4129	67.3864	-13.8646	-0.566965	65.6363	-30.3931	-16.8019	54.9027	-46.3413	-35.4241	41.8738	-10.2856	0.0202637	29.7234	-28.2082	-19.6311	23.1642	-38.5844	-35.7021	31.4634	1.1508	0.449116	17.1115	-8.53781	-17.2863	13.1479	-16.5303	-40.26	15.7989	22.4704	8.3637	5.11663	13.3071	-3.48562	-7.87488	8.35854	-9.09583	45.765	22.4725	34.4389	56.6311	39.3126	56.6828	75.0625	21.0958	43.4551	
114	0.95	96.751	43.0151	27.5961	97.6911	44.2013	-0.787689	93.8243	38.1353	-22.209	85.3478	31.9404	-45.4059	71.4234	-10.9688	6.71849	66.5545	-30.2566	-9.14332	60.1606	-44.8348	-25.9642	43.1865	-10.21	8.18898	38.0802	-27.5864	-6.95303	28.7896	-42.0812	-26.2019	33.9783	1.72632	7.29827	21.1883	-12.8474	-10.5502	16.0327	-20.12	-25.6795	18.4198	23.8161	12.0534	9.59441	11.0923	-2.33726	0.58489	2.8317	-11.4249	44.6329	31.6908	41.5113	53.9448	42.3361	57.3934	75.1417	29.3291	47.8026	
115	0.958333	97.0781	56.564	32.4961	97.5757	54.0167	-0.847497	93.2509	46.1986	-22.2904	78.2612	39.0971	-40.1372	77.5265	-2.17137	10.9871	78.2737	-24.5435	-6.63579	78.8139	-38.3091	-29.0816	56.5073	-6.79778	10.1777	47.5637	-28.1897	-8.80481	46.0152	-42.5925	-31.4593	39.1695	8.14746	9.07816	35.7329	-11.5364	-8.12292	30.0459	-21.3816	-27.1641	28.8156	20.9194	9.40137	25.2743	7.29727	-5.79844	21.7849	-4.18521	-17.4463	47.7184	35.4631	41.0027	52.8788	50.0249	58.7314	72.7884	33.1407	50.3862	
116	0.966667	92.9607	66.2604	35.126	94.8687	67.16	0.901084	93.1155	58.7282	-22.5879	80.8636	49.72	-37.0623	98.5096	10.2547	9.75544	107.629	-8.69793	-11.6691	106.931	-15.6963	-36.4424	82.5193	-1.17985	7.09489	80.6664	-20.3096	-14.6189	82.1647	-29.7518	-38.4676	62.4399	5.14339	4.1672	62.3893	-10.1746	-13.1844	65.1894	-16.5415	-32.8017	47.9638	17.2024	6.79765	47.6705	6.64277	-6.30931	54.1485	-4.50931	-25.3317	58.3237	31.2772	37.2274	55.3422	48.1936	62.0657	82.338	41.3726	53.9573	
117	0.975	88.284	74.1676	37.9974	91.2069	80.1241	4.26602	89.871	67.0177	-16.8129	83.2278	53.7401	-37.7891	126.586	30.4799	7.45097	137.795	23.8405	-13.4277	142.223	21.1027	-38.2503	112.134	13.4173	5.1253	123.153	2.26625	-12.0234	130.79	-6.02718	-40.3966	89.932	8.70391	2.40334	100.721	-0.855804	-16.3788	111.042	-4.76848	-38.7681	71.3663	9.91961	1.90412	78.4245	3.76565	-10.1182	89.9741	-2.01542	-30.58	74.7168	27.9147	36.3296	58.7859	37.803	57.7451	91.208	43.6534	50.5075	
118	0.983333	82.0361	76.3939	40.311	85.5556	77.7853	3.74386	87.4988	71.6048	-17.6556	87.3643	51.8852	-34.7907	134.198	54.5644	10.233	149.009	56.285	-11.1845	156.359	59.8988	-35.4908	129.958	32.519	6.6499	147.799	27.3078	-11.5871	159.353	21.878	-37.332	116.885	15.1001	1.42596	131.684	11.4716	-18.2867	143.281	15.0481	-34.5489	94.0939	10.4185	4.20874	107.74	2.72584	-15.1626	118.848	3.63688	-27.2208	88.5777	23.4943	37.8368	71.6401	26.3817	55.7996	97.9193	44.8156	51.998	
119	0.991667	75.8411	68.2166	37.7512	78.3981	74.1155	3.46094	85.5161	64.8126	-16.1976	90.0191	46.7057	-32.0496	131.596	69.9195	10.8522	144.242	75.2098	-13.0273	149.386	82.2524	-33.9947	141.347	46.16	6.55734	157.654	48.5714	-10.9698	170.181	46.9375	-31.3415	129.96	28.3758	5.71761	148.795	27.1593	-14.3563	157.772	33.3542	-28.4089	112.452	8.59299	5.97184	130.326	9.92799	-10.6513	142.578	10.7772	-23.7401	99.7668	24.3679	38.2554	86.828	21.9613	55.9498	98.6473	48.7816	52.039	
120	1	70.982	63.8391	38.9626	75.0234	71.1788	2.3881	84.3371	60.4774	-16.6177	92.1252	43.901	-30.5859	128.348	76.2148	5.12382	134.528	86.439	-13.709	138.644	90.8539	-34.3623	140.887	57.4796	6.38765	155.34	59.086	-8.55886	172.242	64.1367	-29.0332	134.821	34.0677	6.35498	151.688	36.6535	-9.30937	163.116	42.4344	-26.0009	122.518	11.5659	7.17027	137.173	13.5218	-5.11835	152.901	17.0821	-20.3301	108.685	26.9766	37.2802	90.204	19.7226	59.7469	99.7963	47.5255	53.5729	
121	1.00833	71.5571	63.0477	40.0541	69.5479	69.8784	8.03661	85.3115	61.1224	-15.4032	93.2342	45.2824	-29.5217	124.905	77.1371	7.76896	130.276	90.7386	-16.1698	134.336	95.2552	-38.2253	138.817	55.3678	8.40191	155.097	64.9343	-7.4779	172.89	69.7553	-31.2156	137.65	34.963	7.78179	154.611	41.8291	-10.3206	165.482	52.4205	-25.5797	128.364	15.5834	8.03151	141.574	19.8942	-2.99751	156.986	20.9623	-17.6643	111.184	26.7814	39.5168	94.6861	17.79	57.5438	101.083	45.6793	51.7485	
122	1.01667	72.6724	67.3128	42.7983	70.6929	74.6925	9.75229	83.826	67.4364	-11.2889	96.2689	50.6257	-24.3104	124.723	86.2648	8.77277	130.006	96.3312	-14.2492	129.904	101.776	-32.1345	139.089	63.7807	11.7786	155.531	70.4068	-6.33691	171.219	80.515	-28.3936	140.739	42.5233	9.00767	155.946	50.9521	-7.3319	167.137	58.0369	-25.1223	132.338	25.7593	8.99242	143.178	27.0504	-1.08162	159.019	27.1591	-19.3483	115.746	29.908	41.2079	96.3031	19.4412	61.6519	99.7037	52.9871	58.8014	
123	1.025	68.4396	69.9486	46.5584	68.4944	80.1867	10.7504	78.4553	74.2888	-7.1989	89.8986	61.0827	-29.1521	119.892	94.1704	11.4493	123.667	104.59	-9.68184	124.973	109.224	-36.7347	137.625	72.306	10.9562	152.529	83.4495	-7.30222	165.101	92.4127	-26.6064	140.197	53.5812	9.53348	152.649	62.2223	-6.75262	161.933	67.9351	-23.7239	130.558	29.1806	11.6766	145.911	33.5563	-5.13572	158.697	36.8759	-17.2618	114.369	35.5987	42.44	98.3462	27.0473	63.4077	98.0338	57.8394	58.4843	
124	1.03333	67.7114	70.5503	45.3567	63.5237	80.8788	15.0852	73.4486	77.8811	-9.26788	85.6463	64.856	-25.2901	115.79	99.5633	9.21269	118.341	108.382	-11.7944	117.147	115.495	-33.9289	134.273	82.8774	9.56702	146.964	86.8811	-5.97382	161.773	97.1094	-28.377	135.701	57.0109	7.80413	149.346	65.4828	-7.8545	157.976	76.8492	-25.628	131.436	34.834	8.31752	142.81	39.5557	-6.15601	153.653	45.2562	-17.6792	111.148	43.2162	40.849	95.6387	34.0366	63.607	95.526	63.5886	58.2253	
